<svg width="149" height="31" viewBox="0 0 149 31" fill="none" xmlns="http://www.w3.org/2000/svg">
<path d="M28.142 14.7766C28.142 18.1835 28.142 27.142 28.142 27.142C28.142 27.142 19.1989 27.142 15.7766 27.142C8.94733 27.142 3.41113 21.6058 3.41113 14.7766C3.41113 7.94733 8.94733 2.41113 15.7766 2.41113C22.6058 2.41113 28.142 7.94733 28.142 14.7766Z" fill="#FF835C"/>
<rect x="7.67529" y="9.23346" width="5.11673" height="4.26394" rx="2.13197" fill="white"/>
<rect x="9.38086" y="16.0558" width="9.38068" height="4.26394" rx="2.13197" fill="white"/>
<rect x="14.4976" y="9.23346" width="9.38068" height="4.26394" rx="2.13197" fill="white"/>
<rect x="20.4668" y="16.0558" width="4.26394" height="4.26394" rx="2.13197" fill="white"/>
<path d="M39.4562 7.32789C39.095 7.32789 38.7725 7.40528 38.4888 7.56006C38.205 7.70969 37.9625 7.92897 37.7613 8.2179C37.5601 8.50683 37.4053 8.86026 37.2969 9.27818C37.1937 9.69094 37.1421 10.1605 37.1421 10.6867C37.1421 11.3987 37.2324 11.9972 37.413 12.4822C37.5936 12.9672 37.8671 13.3336 38.2334 13.5812C38.6049 13.8289 39.0692 13.9527 39.6264 13.9527C40.1321 13.9527 40.6171 13.883 41.0814 13.7437C41.5509 13.6044 42.023 13.4367 42.4977 13.2407V15.8256C41.9972 16.0475 41.4839 16.2074 40.9576 16.3054C40.4365 16.4035 39.8818 16.4525 39.2937 16.4525C38.0657 16.4525 37.0596 16.21 36.2753 15.725C35.4963 15.2348 34.921 14.5564 34.5495 13.6896C34.1832 12.8228 34 11.8167 34 10.6712C34 9.81477 34.1187 9.03052 34.356 8.31851C34.5985 7.6065 34.9519 6.98994 35.4163 6.46883C35.8806 5.94256 36.4533 5.53753 37.1344 5.25376C37.8206 4.96483 38.6049 4.82036 39.4871 4.82036C40.0341 4.82036 40.6093 4.88486 41.213 5.01384C41.8218 5.13767 42.4152 5.33889 42.993 5.61751L42.0566 8.02442C41.6438 7.82836 41.2259 7.66325 40.8028 7.52911C40.3797 7.39496 39.9309 7.32789 39.4562 7.32789Z" fill="#3F3F3F"/>
<path d="M48.813 7.37432C49.9223 7.37432 50.7891 7.65036 51.4134 8.20242C52.0377 8.74933 52.3498 9.531 52.3498 10.5474V16.2977H50.2525L49.672 15.1368H49.6101C49.3625 15.4464 49.1071 15.6992 48.8439 15.8953C48.5859 16.0862 48.2893 16.2255 47.9539 16.3132C47.6185 16.406 47.2084 16.4525 46.7234 16.4525C46.2177 16.4525 45.7637 16.3493 45.3612 16.1429C44.9588 15.9365 44.6415 15.6244 44.4093 15.2065C44.1771 14.7885 44.0611 14.2597 44.0611 13.6199C44.0611 12.6809 44.3861 11.9843 45.0362 11.5303C45.6863 11.0763 46.6279 10.8209 47.861 10.7641L49.3238 10.7177V10.5939C49.3238 10.2017 49.2257 9.92312 49.0297 9.75802C48.8388 9.59291 48.5808 9.51036 48.2557 9.51036C47.91 9.51036 47.5231 9.57227 47.0948 9.6961C46.6718 9.81477 46.2461 9.96956 45.8179 10.1605L44.9433 8.16373C45.449 7.90575 46.0217 7.70969 46.6614 7.57554C47.3012 7.44139 48.0184 7.37432 48.813 7.37432ZM49.3392 12.3816L48.6427 12.4126C48.0855 12.4332 47.6933 12.5313 47.4663 12.7067C47.2445 12.8769 47.1335 13.122 47.1335 13.4419C47.1335 13.7412 47.2135 13.963 47.3735 14.1075C47.5334 14.2468 47.7449 14.3164 48.0081 14.3164C48.3744 14.3164 48.6866 14.2004 48.9445 13.9682C49.2077 13.736 49.3392 13.4342 49.3392 13.0627V12.3816Z" fill="#3F3F3F"/>
<path d="M59.764 7.37432C60.734 7.37432 61.495 7.76386 62.0471 8.54295C62.5992 9.31688 62.8752 10.4339 62.8752 11.8941C62.8752 12.8898 62.7359 13.7283 62.4573 14.4093C62.1787 15.0852 61.7969 15.596 61.3119 15.9417C60.832 16.2822 60.2851 16.4525 59.6712 16.4525C59.2584 16.4525 58.9075 16.4009 58.6186 16.2977C58.3348 16.1945 58.0975 16.0655 57.9066 15.9107C57.7209 15.7559 57.5635 15.5986 57.4345 15.4386H57.3416C57.3674 15.6399 57.3881 15.8566 57.4036 16.0887C57.4242 16.3209 57.4345 16.5918 57.4345 16.9014V20.1054H54.4085V7.52911H56.8695L57.2952 8.64356H57.4345C57.579 8.41654 57.7544 8.20758 57.9608 8.01668C58.1672 7.82062 58.4174 7.66583 58.7115 7.55232C59.0107 7.43366 59.3616 7.37432 59.764 7.37432ZM58.6264 9.75028C58.3323 9.75028 58.1001 9.81993 57.9298 9.95924C57.7596 10.0985 57.6357 10.3101 57.5583 10.5939C57.4861 10.8725 57.4448 11.2207 57.4345 11.6387V11.8786C57.4345 12.3429 57.4706 12.7351 57.5429 13.0549C57.6151 13.3697 57.7389 13.6096 57.9143 13.7747C58.0898 13.9346 58.3323 14.0146 58.6418 14.0146C58.8947 14.0146 59.1062 13.9424 59.2765 13.7979C59.4467 13.6534 59.5757 13.4239 59.6634 13.1091C59.7511 12.7944 59.795 12.379 59.795 11.8631C59.795 11.0943 59.6944 10.55 59.4932 10.2301C59.2971 9.91022 59.0082 9.75028 58.6264 9.75028Z" fill="#3F3F3F"/>
<path d="M68.9041 14.061C69.1776 14.061 69.4278 14.0327 69.6548 13.9759C69.8818 13.9192 70.1192 13.8469 70.3668 13.7592V15.9649C70.0366 16.1094 69.6858 16.2255 69.3143 16.3132C68.948 16.406 68.4784 16.4525 67.9057 16.4525C67.3382 16.4525 66.8377 16.3648 66.4043 16.1893C65.9709 16.0088 65.633 15.6992 65.3905 15.2606C65.1531 14.8169 65.0345 14.2004 65.0345 13.411V9.79671H63.9742V8.56617L65.3208 7.61424L66.1025 5.77229H68.0837V7.52911H70.2353V9.79671H68.0837V13.2097C68.0837 13.4935 68.156 13.7076 68.3004 13.8521C68.4449 13.9914 68.6461 14.061 68.9041 14.061Z" fill="#3F3F3F"/>
<path d="M74.9407 7.52911V16.2977H71.9147V7.52911H74.9407ZM73.4393 4C73.8727 4 74.2494 4.09029 74.5693 4.27087C74.8943 4.45146 75.0568 4.81004 75.0568 5.34663C75.0568 5.86774 74.8943 6.22117 74.5693 6.40691C74.2494 6.5875 73.8727 6.67779 73.4393 6.67779C72.9956 6.67779 72.6164 6.5875 72.3016 6.40691C71.9921 6.22117 71.8373 5.86774 71.8373 5.34663C71.8373 4.81004 71.9921 4.45146 72.3016 4.27087C72.6164 4.09029 72.9956 4 73.4393 4Z" fill="#3F3F3F"/>
<path d="M85.4274 11.8941C85.4274 12.6267 85.3268 13.2768 85.1256 13.8443C84.9244 14.4119 84.6329 14.8892 84.2511 15.2761C83.8693 15.6631 83.4075 15.9572 82.8657 16.1584C82.324 16.3545 81.7126 16.4525 81.0315 16.4525C80.3969 16.4525 79.8139 16.3545 79.2825 16.1584C78.7562 15.9572 78.297 15.6631 77.9049 15.2761C77.5128 14.8892 77.2083 14.4119 76.9916 13.8443C76.7801 13.2768 76.6743 12.6267 76.6743 11.8941C76.6743 10.9241 76.8498 10.1037 77.2006 9.43297C77.5566 8.76223 78.0622 8.25144 78.7175 7.90059C79.3779 7.54974 80.1647 7.37432 81.078 7.37432C81.919 7.37432 82.6671 7.54974 83.3224 7.90059C83.9776 8.25144 84.491 8.76223 84.8625 9.43297C85.2391 10.1037 85.4274 10.9241 85.4274 11.8941ZM79.7468 11.8941C79.7468 12.3945 79.7907 12.8176 79.8784 13.1633C79.9661 13.5038 80.1054 13.7644 80.2963 13.945C80.4924 14.1204 80.7478 14.2081 81.0625 14.2081C81.3772 14.2081 81.6275 14.1204 81.8132 13.945C81.999 13.7644 82.1331 13.5038 82.2156 13.1633C82.3034 12.8176 82.3472 12.3945 82.3472 11.8941C82.3472 11.3936 82.3034 10.9757 82.2156 10.6403C82.1331 10.3049 81.9964 10.0521 81.8055 9.88184C81.6197 9.71158 81.3669 9.62645 81.047 9.62645C80.5878 9.62645 80.255 9.81735 80.0487 10.1992C79.8474 10.581 79.7468 11.1459 79.7468 11.8941Z" fill="#3F3F3F"/>
<path d="M92.6482 7.37432C93.5511 7.37432 94.2889 7.62972 94.8616 8.14051C95.4343 8.6513 95.7207 9.46908 95.7207 10.5939V16.2977H92.6946V11.5148C92.6946 10.9318 92.6095 10.4932 92.4392 10.1992C92.2741 9.8999 92.0058 9.75028 91.6343 9.75028C91.0616 9.75028 90.6772 9.98503 90.4812 10.4546C90.2851 10.9189 90.1871 11.5871 90.1871 12.459V16.2977H87.161V7.52911H89.4441L89.8543 8.69H89.9704C90.1561 8.41138 90.378 8.17405 90.636 7.97798C90.894 7.78192 91.1906 7.6323 91.526 7.52911C91.8614 7.42592 92.2354 7.37432 92.6482 7.37432Z" fill="#3F3F3F"/>
<path d="M112.964 4.98289L110.178 16.2977H106.563L105.48 11.3678C105.459 11.2749 105.426 11.1175 105.379 10.8957C105.338 10.6738 105.289 10.421 105.232 10.1372C105.181 9.85347 105.132 9.57485 105.085 9.3014C105.044 9.02279 105.013 8.78803 104.992 8.59713C104.972 8.78803 104.938 9.02279 104.892 9.3014C104.845 9.57485 104.794 9.85347 104.737 10.1372C104.685 10.421 104.634 10.6738 104.582 10.8957C104.536 11.1175 104.502 11.2749 104.482 11.3678L103.39 16.2977H99.7761L96.9744 4.98289H99.9231L101.154 10.6558C101.185 10.7951 101.226 10.9937 101.277 11.2517C101.334 11.5045 101.391 11.7831 101.448 12.0875C101.51 12.3868 101.566 12.6757 101.618 12.9543C101.67 13.2329 101.706 13.4651 101.726 13.6509C101.768 13.331 101.822 12.9672 101.889 12.5596C101.961 12.152 102.038 11.7393 102.121 11.3213C102.209 10.8983 102.291 10.5061 102.369 10.145C102.446 9.78381 102.513 9.48972 102.57 9.2627L103.568 4.98289H106.401L107.368 9.2627C107.42 9.48456 107.484 9.77865 107.562 10.145C107.644 10.5061 107.727 10.8983 107.809 11.3213C107.897 11.7444 107.977 12.1623 108.049 12.5751C108.122 12.9827 108.176 13.3413 108.212 13.6509C108.243 13.3929 108.294 13.0678 108.367 12.6757C108.439 12.2784 108.511 11.8941 108.583 11.5226C108.661 11.1459 108.72 10.8622 108.761 10.6712L110.015 4.98289H112.964Z" fill="#3F3F3F"/>
<path d="M122.622 11.8941C122.622 12.6267 122.522 13.2768 122.321 13.8443C122.119 14.4119 121.828 14.8892 121.446 15.2761C121.064 15.6631 120.602 15.9572 120.061 16.1584C119.519 16.3545 118.908 16.4525 118.226 16.4525C117.592 16.4525 117.009 16.3545 116.477 16.1584C115.951 15.9572 115.492 15.6631 115.1 15.2761C114.708 14.8892 114.403 14.4119 114.187 13.8443C113.975 13.2768 113.869 12.6267 113.869 11.8941C113.869 10.9241 114.045 10.1037 114.396 9.43297C114.752 8.76223 115.257 8.25144 115.912 7.90059C116.573 7.54974 117.36 7.37432 118.273 7.37432C119.114 7.37432 119.862 7.54974 120.517 7.90059C121.173 8.25144 121.686 8.76223 122.057 9.43297C122.434 10.1037 122.622 10.9241 122.622 11.8941ZM116.942 11.8941C116.942 12.3945 116.986 12.8176 117.073 13.1633C117.161 13.5038 117.3 13.7644 117.491 13.945C117.687 14.1204 117.943 14.2081 118.257 14.2081C118.572 14.2081 118.822 14.1204 119.008 13.945C119.194 13.7644 119.328 13.5038 119.411 13.1633C119.498 12.8176 119.542 12.3945 119.542 11.8941C119.542 11.3936 119.498 10.9757 119.411 10.6403C119.328 10.3049 119.191 10.0521 119 9.88184C118.815 9.71158 118.562 9.62645 118.242 9.62645C117.783 9.62645 117.45 9.81735 117.244 10.1992C117.042 10.581 116.942 11.1459 116.942 11.8941Z" fill="#3F3F3F"/>
<path d="M129.65 7.37432C129.815 7.37432 129.988 7.38722 130.168 7.41302C130.349 7.43366 130.483 7.45171 130.571 7.46719L130.3 10.323C130.202 10.2972 130.075 10.2765 129.921 10.2611C129.766 10.2404 129.549 10.2301 129.27 10.2301C129.08 10.2301 128.876 10.2482 128.659 10.2843C128.442 10.3204 128.236 10.3978 128.04 10.5165C127.849 10.63 127.692 10.8054 127.568 11.0427C127.444 11.2749 127.382 11.5896 127.382 11.9869V16.2977H124.356V7.52911H126.608L127.08 8.92991H127.227C127.387 8.64098 127.591 8.38043 127.839 8.14825C128.091 7.91091 128.373 7.72259 128.682 7.58328C128.997 7.44397 129.319 7.37432 129.65 7.37432Z" fill="#3F3F3F"/>
<path d="M134.843 4.2554V8.99183C134.843 9.34784 134.827 9.74512 134.796 10.1837C134.77 10.6171 134.729 11.0118 134.672 11.3678H134.734C134.853 11.1872 135.003 10.9602 135.183 10.6867C135.364 10.4133 135.526 10.1863 135.671 10.0057L137.637 7.52911H141.011L137.969 11.2594L141.204 16.2977H137.745L135.826 13.1556L134.843 13.9063V16.2977H131.801V4.2554H134.843Z" fill="#3F3F3F"/>
<path d="M148.766 13.6044C148.766 14.1617 148.642 14.6544 148.394 15.0826C148.146 15.5109 147.749 15.8462 147.202 16.0887C146.661 16.3312 145.946 16.4525 145.059 16.4525C144.434 16.4525 143.874 16.4189 143.379 16.3519C142.889 16.2848 142.391 16.1558 141.885 15.9649V13.5425C142.437 13.7953 143 13.9785 143.573 14.092C144.145 14.2004 144.597 14.2545 144.927 14.2545C145.267 14.2545 145.515 14.2184 145.67 14.1462C145.83 14.0688 145.91 13.9553 145.91 13.8057C145.91 13.6767 145.856 13.5683 145.747 13.4806C145.644 13.3877 145.456 13.282 145.182 13.1633C144.914 13.0446 144.535 12.8847 144.045 12.6835C143.56 12.4822 143.155 12.263 142.83 12.0256C142.51 11.7883 142.27 11.5045 142.11 11.1743C141.95 10.8441 141.87 10.4391 141.87 9.95924C141.87 9.10276 142.2 8.45782 142.861 8.02442C143.521 7.59102 144.396 7.37432 145.484 7.37432C146.062 7.37432 146.606 7.43882 147.117 7.5678C147.628 7.69163 148.157 7.87479 148.704 8.11729L147.876 10.0676C147.442 9.87153 147.004 9.71416 146.56 9.59549C146.116 9.47682 145.763 9.41749 145.5 9.41749C145.262 9.41749 145.079 9.44845 144.95 9.51036C144.821 9.57227 144.757 9.66257 144.757 9.78123C144.757 9.88958 144.801 9.98503 144.888 10.0676C144.981 10.1501 145.154 10.2456 145.407 10.3539C145.66 10.4623 146.029 10.6145 146.514 10.8106C147.024 11.0169 147.445 11.2388 147.775 11.4761C148.11 11.7083 148.358 11.9921 148.518 12.3275C148.683 12.6628 148.766 13.0885 148.766 13.6044Z" fill="#3F3F3F"/>
<path d="M36.7515 22.813C36.5487 22.813 36.3687 22.8529 36.2114 22.9326C36.0565 23.0101 35.9255 23.1229 35.8184 23.271C35.7135 23.4191 35.6338 23.598 35.5791 23.8076C35.5244 24.0173 35.4971 24.2531 35.4971 24.5151C35.4971 24.8683 35.5404 25.1702 35.627 25.4209C35.7158 25.6693 35.8525 25.8595 36.0371 25.9917C36.2217 26.1216 36.4598 26.1865 36.7515 26.1865C36.9543 26.1865 37.1571 26.1637 37.3599 26.1182C37.5649 26.0726 37.7871 26.0076 38.0264 25.9233V26.812C37.8053 26.9032 37.5877 26.9681 37.3735 27.0068C37.1593 27.0479 36.9189 27.0684 36.6523 27.0684C36.1374 27.0684 35.7135 26.9624 35.3809 26.7505C35.0505 26.5363 34.8055 26.2378 34.646 25.855C34.4865 25.4699 34.4067 25.021 34.4067 24.5083C34.4067 24.13 34.458 23.7837 34.5605 23.4692C34.6631 23.1548 34.8135 22.8825 35.0117 22.6523C35.21 22.4222 35.4549 22.2445 35.7466 22.1191C36.0382 21.9938 36.3732 21.9312 36.7515 21.9312C36.9998 21.9312 37.2482 21.9631 37.4966 22.0269C37.7472 22.0884 37.9865 22.1738 38.2144 22.2832L37.8726 23.1445C37.6857 23.0557 37.4977 22.9782 37.3086 22.9121C37.1195 22.846 36.9338 22.813 36.7515 22.813Z" fill="#3F3F3F"/>
<path d="M44.0419 27L43.6796 25.8105H41.8578L41.4955 27H40.3539L42.1175 21.9824H43.4129L45.1835 27H44.0419ZM43.4266 24.9219L43.0643 23.7598C43.0415 23.6823 43.0108 23.5832 42.972 23.4624C42.9356 23.3394 42.898 23.2152 42.8592 23.0898C42.8228 22.9622 42.7932 22.8517 42.7704 22.7583C42.7476 22.8517 42.7157 22.9679 42.6747 23.1069C42.6359 23.2437 42.5983 23.3735 42.5619 23.4966C42.5254 23.6196 42.4992 23.7074 42.4833 23.7598L42.1244 24.9219H43.4266Z" fill="#3F3F3F"/>
<path d="M49.302 22.0029C49.9468 22.0029 50.4174 22.1419 50.7136 22.4199C51.0098 22.6956 51.1579 23.0762 51.1579 23.5615C51.1579 23.7803 51.1249 23.9899 51.0588 24.1904C50.9927 24.3887 50.8845 24.5653 50.7341 24.7202C50.586 24.8752 50.3877 24.9982 50.1394 25.0894C49.891 25.1782 49.5845 25.2227 49.2199 25.2227H48.7654V27H47.7058V22.0029H49.302ZM49.2473 22.8711H48.7654V24.3545H49.114C49.3122 24.3545 49.4843 24.3283 49.6301 24.2759C49.7759 24.2235 49.8887 24.1414 49.9685 24.0298C50.0482 23.9181 50.0881 23.7746 50.0881 23.5991C50.0881 23.353 50.0197 23.1707 49.883 23.0522C49.7463 22.9315 49.5344 22.8711 49.2473 22.8711Z" fill="#3F3F3F"/>
<path d="M55.919 27H54.8595V22.8848H53.5025V22.0029H57.276V22.8848H55.919V27Z" fill="#3F3F3F"/>
<path d="M59.935 27V22.0029H60.9946V27H59.935Z" fill="#3F3F3F"/>
<path d="M68.678 24.4946C68.678 24.8797 68.6302 25.2306 68.5345 25.5474C68.4388 25.8618 68.2929 26.133 68.097 26.3608C67.9033 26.5887 67.6572 26.7642 67.3587 26.8872C67.0602 27.008 66.707 27.0684 66.2991 27.0684C65.8912 27.0684 65.5381 27.008 65.2396 26.8872C64.941 26.7642 64.6938 26.5887 64.4979 26.3608C64.3042 26.133 64.1595 25.8607 64.0638 25.5439C63.9681 25.2272 63.9202 24.8752 63.9202 24.4878C63.9202 23.9705 64.0045 23.5205 64.1731 23.1377C64.344 22.7526 64.6061 22.4541 64.9593 22.2422C65.3125 22.0303 65.7614 21.9243 66.306 21.9243C66.8483 21.9243 67.2938 22.0303 67.6424 22.2422C67.9933 22.4541 68.2531 22.7526 68.4217 23.1377C68.5926 23.5228 68.678 23.9751 68.678 24.4946ZM65.0311 24.4946C65.0311 24.8433 65.0744 25.144 65.1609 25.397C65.2498 25.6476 65.3877 25.8413 65.5745 25.978C65.7614 26.1125 66.0029 26.1797 66.2991 26.1797C66.5999 26.1797 66.8437 26.1125 67.0306 25.978C67.2174 25.8413 67.353 25.6476 67.4373 25.397C67.5239 25.144 67.5672 24.8433 67.5672 24.4946C67.5672 23.9705 67.4692 23.5581 67.2732 23.2573C67.0773 22.9565 66.7549 22.8062 66.306 22.8062C66.0075 22.8062 65.7636 22.8745 65.5745 23.0112C65.3877 23.1457 65.2498 23.3394 65.1609 23.5923C65.0744 23.8429 65.0311 24.1437 65.0311 24.4946Z" fill="#3F3F3F"/>
<path d="M76.0368 27H74.6901L72.5163 23.2197H72.4855C72.4946 23.377 72.5026 23.5353 72.5094 23.6948C72.5163 23.8543 72.5231 24.0138 72.5299 24.1733C72.5368 24.3306 72.5436 24.4889 72.5504 24.6484V27H71.6037V22.0029H72.9401L75.1105 25.7456H75.1344C75.1299 25.5907 75.1242 25.4368 75.1173 25.2842C75.1105 25.1315 75.1037 24.9788 75.0968 24.8262C75.0923 24.6735 75.0877 24.5208 75.0832 24.3682V22.0029H76.0368V27Z" fill="#3F3F3F"/>
<path d="M82.1377 25.6123C82.1377 25.9085 82.0659 26.166 81.9224 26.3848C81.7788 26.6035 81.5692 26.7721 81.2935 26.8906C81.02 27.0091 80.6874 27.0684 80.2954 27.0684C80.1223 27.0684 79.9525 27.057 79.7862 27.0342C79.6221 27.0114 79.4637 26.9784 79.3111 26.9351C79.1607 26.8895 79.0171 26.8337 78.8804 26.7676V25.7832C79.1174 25.888 79.3635 25.9826 79.6187 26.0669C79.8739 26.1512 80.1268 26.1934 80.3775 26.1934C80.5506 26.1934 80.6896 26.1706 80.7945 26.125C80.9016 26.0794 80.979 26.0168 81.0269 25.937C81.0747 25.8573 81.0987 25.7661 81.0987 25.6636C81.0987 25.5382 81.0565 25.4312 80.9722 25.3423C80.8879 25.2534 80.7717 25.1702 80.6236 25.0928C80.4777 25.0153 80.3125 24.9321 80.1279 24.8433C80.0117 24.7886 79.8853 24.7225 79.7486 24.645C79.6118 24.5653 79.482 24.4684 79.3589 24.3545C79.2359 24.2406 79.1345 24.1027 79.0547 23.9409C78.9772 23.7769 78.9385 23.5809 78.9385 23.353C78.9385 23.0545 79.0069 22.7993 79.1436 22.5874C79.2803 22.3755 79.4751 22.2137 79.728 22.1021C79.9833 21.9881 80.284 21.9312 80.6304 21.9312C80.8902 21.9312 81.1374 21.9619 81.3721 22.0234C81.6091 22.0827 81.8563 22.1693 82.1138 22.2832L81.772 23.1069C81.5418 23.0135 81.3356 22.9417 81.1533 22.8916C80.971 22.8392 80.7853 22.813 80.5962 22.813C80.4641 22.813 80.3513 22.8346 80.2578 22.8779C80.1644 22.9189 80.0938 22.9782 80.0459 23.0557C79.9981 23.1309 79.9741 23.2186 79.9741 23.3188C79.9741 23.4373 80.0083 23.5376 80.0767 23.6196C80.1473 23.6994 80.2521 23.7769 80.3911 23.8521C80.5324 23.9272 80.7079 24.015 80.9175 24.1152C81.1727 24.236 81.3903 24.3625 81.5703 24.4946C81.7526 24.6245 81.8928 24.7783 81.9907 24.9561C82.0887 25.1315 82.1377 25.3503 82.1377 25.6123Z" fill="#3F3F3F"/>
<path d="M94.7805 22.0029L93.509 27H92.3025L91.6257 24.375C91.612 24.3249 91.5938 24.2485 91.571 24.146C91.5482 24.0435 91.5243 23.9318 91.4993 23.811C91.4742 23.688 91.4514 23.5729 91.4309 23.4658C91.4127 23.3564 91.4001 23.2699 91.3933 23.2061C91.3865 23.2699 91.3728 23.3553 91.3523 23.4624C91.3341 23.5695 91.3124 23.6834 91.2873 23.8042C91.2646 23.925 91.2418 24.0378 91.219 24.1426C91.1962 24.2474 91.178 24.3271 91.1643 24.3818L90.491 27H89.2878L88.0129 22.0029H89.0554L89.6946 24.7305C89.7128 24.8125 89.7333 24.9105 89.7561 25.0244C89.7812 25.1383 89.8051 25.258 89.8279 25.3833C89.8529 25.5063 89.8746 25.626 89.8928 25.7422C89.9133 25.8561 89.9281 25.9552 89.9372 26.0396C89.9486 25.953 89.9634 25.8527 89.9817 25.7388C89.9999 25.6226 90.0193 25.5052 90.0398 25.3867C90.0626 25.266 90.0854 25.1543 90.1081 25.0518C90.1309 24.9492 90.1514 24.866 90.1697 24.8022L90.8977 22.0029H91.8992L92.6272 24.8022C92.6431 24.8638 92.6614 24.9469 92.6819 25.0518C92.7047 25.1543 92.7274 25.266 92.7502 25.3867C92.773 25.5075 92.7935 25.626 92.8118 25.7422C92.8323 25.8561 92.8471 25.9552 92.8562 26.0396C92.8721 25.9256 92.8938 25.7878 92.9211 25.626C92.9508 25.4619 92.9815 25.299 93.0134 25.1372C93.0476 24.9754 93.0772 24.8398 93.1023 24.7305L93.738 22.0029H94.7805Z" fill="#3F3F3F"/>
<path d="M97.2994 27V22.0029H98.359V27H97.2994Z" fill="#3F3F3F"/>
<path d="M103.435 27H102.375V22.8848H101.018V22.0029H104.791V22.8848H103.435V27Z" fill="#3F3F3F"/>
<path d="M111.545 27H110.489V24.8433H108.51V27H107.451V22.0029H108.51V23.9614H110.489V22.0029H111.545V27Z" fill="#3F3F3F"/>
<path d="M122.503 27H121.447V24.8433H119.468V27H118.408V22.0029H119.468V23.9614H121.447V22.0029H122.503V27Z" fill="#3F3F3F"/>
<path d="M128.536 27H125.658V22.0029H128.536V22.8711H126.717V23.9683H128.409V24.8364H126.717V26.125H128.536V27Z" fill="#3F3F3F"/>
<path d="M134.531 27L134.168 25.8105H132.346L131.984 27H130.843L132.606 21.9824H133.902L135.672 27H134.531ZM133.915 24.9219L133.553 23.7598C133.53 23.6823 133.499 23.5832 133.461 23.4624C133.424 23.3394 133.387 23.2152 133.348 23.0898C133.311 22.9622 133.282 22.8517 133.259 22.7583C133.236 22.8517 133.204 22.9679 133.163 23.1069C133.125 23.2437 133.087 23.3735 133.051 23.4966C133.014 23.6196 132.988 23.7074 132.972 23.7598L132.613 24.9219H133.915Z" fill="#3F3F3F"/>
<path d="M139.651 22.0029C140.104 22.0029 140.478 22.0576 140.772 22.167C141.068 22.2764 141.288 22.4416 141.431 22.6626C141.575 22.8836 141.647 23.1628 141.647 23.5C141.647 23.7279 141.603 23.9272 141.517 24.0981C141.43 24.269 141.316 24.4137 141.175 24.5322C141.034 24.6507 140.881 24.7476 140.717 24.8228L142.187 27H141.011L139.818 25.0825H139.254V27H138.194V22.0029H139.651ZM139.575 22.8711H139.254V24.2212H139.596C139.947 24.2212 140.197 24.1631 140.348 24.0469C140.5 23.9284 140.577 23.7552 140.577 23.5273C140.577 23.2904 140.495 23.1217 140.331 23.0215C140.169 22.9212 139.917 22.8711 139.575 22.8711Z" fill="#3F3F3F"/>
<path d="M146.633 27H145.574V22.8848H144.217V22.0029H147.99V22.8848H146.633V27Z" fill="#3F3F3F"/>
</svg>
