<svg width="156" height="25" viewBox="0 0 156 25" fill="none" xmlns="http://www.w3.org/2000/svg">
<path d="M22.6952 11.9166C22.6952 14.6641 22.6952 21.8887 22.6952 21.8887C22.6952 21.8887 15.4831 21.8887 12.7231 21.8887C7.21565 21.8887 2.75098 17.424 2.75098 11.9166C2.75098 6.40913 7.21565 1.94446 12.7231 1.94446C18.2306 1.94446 22.6952 6.40913 22.6952 11.9166Z" fill="#FF835C"/>
<rect x="6.18945" y="7.44635" width="4.1264" height="3.43866" rx="1.71933" fill="white"/>
<rect x="7.56494" y="12.9482" width="7.56506" height="3.43866" rx="1.71933" fill="white"/>
<rect x="11.6914" y="7.44635" width="7.56506" height="3.43866" rx="1.71933" fill="white"/>
<rect x="16.5059" y="12.9482" width="3.43866" height="3.43866" rx="1.71933" fill="white"/>
<path d="M32.1337 8.74114C31.7277 8.74114 31.3652 8.82815 31.0462 9.00215C30.7272 9.17036 30.4546 9.41687 30.2284 9.74168C30.0022 10.0665 29.8281 10.4638 29.7063 10.9336C29.5903 11.3976 29.5323 11.9255 29.5323 12.5171C29.5323 13.3175 29.6338 13.9903 29.8368 14.5356C30.0399 15.0808 30.3473 15.4926 30.7591 15.771C31.1767 16.0494 31.6987 16.1886 32.3251 16.1886C32.8936 16.1886 33.4388 16.1103 33.9608 15.9537C34.4886 15.7971 35.0193 15.6086 35.553 15.3882V18.2941C34.9903 18.5435 34.4132 18.7233 33.8216 18.8335C33.2358 18.9437 32.6123 18.9988 31.951 18.9988C30.5706 18.9988 29.4395 18.7262 28.5579 18.181C27.6821 17.63 27.0353 16.8673 26.6177 15.8928C26.2059 14.9184 26 13.7873 26 12.4997C26 11.5369 26.1334 10.6552 26.4002 9.85479C26.6728 9.05436 27.0701 8.36123 27.5922 7.77541C28.1142 7.18378 28.758 6.72847 29.5236 6.40945C30.2951 6.08464 31.1767 5.92224 32.1685 5.92224C32.7834 5.92224 33.4301 5.99474 34.1087 6.13974C34.7931 6.27895 35.4602 6.50516 36.1098 6.81837L35.057 9.52417C34.593 9.30377 34.1232 9.11816 33.6476 8.96735C33.172 8.81655 32.6674 8.74114 32.1337 8.74114Z" fill="#3F3F3F"/>
<path d="M42.6524 8.79335C43.8995 8.79335 44.8739 9.10366 45.5758 9.72428C46.2776 10.3391 46.6285 11.2178 46.6285 12.3605V18.8248H44.2707L43.6182 17.5198H43.5486C43.2702 17.8678 42.9831 18.152 42.6872 18.3724C42.3972 18.587 42.0637 18.7436 41.6867 18.8422C41.3097 18.9466 40.8486 18.9988 40.3033 18.9988C39.7349 18.9988 39.2245 18.8828 38.7721 18.6508C38.3197 18.4188 37.963 18.0679 37.702 17.5981C37.4409 17.1283 37.3104 16.5337 37.3104 15.8145C37.3104 14.7589 37.6758 13.9758 38.4067 13.4654C39.1375 12.955 40.196 12.6679 41.5823 12.6041L43.2267 12.5519V12.4127C43.2267 11.9719 43.1165 11.6587 42.896 11.473C42.6814 11.2874 42.3914 11.1946 42.026 11.1946C41.6374 11.1946 41.2024 11.2642 40.721 11.4034C40.2453 11.5369 39.7668 11.7109 39.2854 11.9255L38.3023 9.68078C38.8707 9.39077 39.5145 9.17036 40.2337 9.01955C40.953 8.86875 41.7592 8.79335 42.6524 8.79335ZM43.2441 14.4225L42.461 14.4573C41.8346 14.4805 41.3938 14.5907 41.1386 14.7879C40.8892 14.9793 40.7645 15.2548 40.7645 15.6144C40.7645 15.9508 40.8544 16.2002 41.0342 16.3626C41.214 16.5192 41.4518 16.5975 41.7476 16.5975C42.1594 16.5975 42.5103 16.467 42.8003 16.206C43.0962 15.945 43.2441 15.6057 43.2441 15.1881V14.4225Z" fill="#3F3F3F"/>
<path d="M54.9634 8.79335C56.0539 8.79335 56.9094 9.23126 57.53 10.1071C58.1506 10.9771 58.4609 12.2329 58.4609 13.8743C58.4609 14.9938 58.3043 15.9363 57.9911 16.702C57.6779 17.4618 57.2487 18.036 56.7035 18.4246C56.1641 18.8074 55.5492 18.9988 54.859 18.9988C54.395 18.9988 54.0006 18.9408 53.6758 18.8248C53.3568 18.7088 53.0899 18.5638 52.8753 18.3898C52.6665 18.2158 52.4896 18.0389 52.3446 17.8591H52.2402C52.2692 18.0853 52.2924 18.3289 52.3098 18.5899C52.333 18.8509 52.3446 19.1554 52.3446 19.5035V23.1054H48.9428V8.96735H51.7095L52.188 10.2202H52.3446C52.507 9.96499 52.7042 9.73008 52.9362 9.51547C53.1682 9.29506 53.4496 9.12106 53.7802 8.99345C54.1166 8.86005 54.511 8.79335 54.9634 8.79335ZM53.6845 11.4643C53.3539 11.4643 53.0928 11.5427 52.9014 11.6993C52.71 11.8559 52.5708 12.0937 52.4838 12.4127C52.4026 12.7259 52.3562 13.1174 52.3446 13.5872V13.8569C52.3446 14.379 52.3852 14.8198 52.4664 15.1794C52.5476 15.5332 52.6868 15.8029 52.884 15.9885C53.0812 16.1683 53.3539 16.2582 53.7019 16.2582C53.9861 16.2582 54.2239 16.177 54.4153 16.0146C54.6067 15.8522 54.7517 15.5941 54.8503 15.2403C54.9489 14.8865 54.9982 14.4196 54.9982 13.8395C54.9982 12.9753 54.8851 12.3634 54.6589 12.0038C54.4385 11.6442 54.1137 11.4643 53.6845 11.4643Z" fill="#3F3F3F"/>
<path d="M65.2385 16.3104C65.5459 16.3104 65.8272 16.2785 66.0824 16.2147C66.3377 16.1509 66.6045 16.0697 66.8829 15.9711V18.4507C66.5117 18.6131 66.1172 18.7436 65.6996 18.8422C65.2878 18.9466 64.76 18.9988 64.1162 18.9988C63.4781 18.9988 62.9155 18.9002 62.4283 18.703C61.9411 18.5 61.5612 18.152 61.2886 17.659C61.0217 17.1602 60.8883 16.467 60.8883 15.5796V11.5166H59.6964V10.1332L61.2103 9.06306L62.089 6.99238H64.3163V8.96735H66.735V11.5166H64.3163V15.3534C64.3163 15.6724 64.3975 15.9131 64.5599 16.0755C64.7223 16.2321 64.9485 16.3104 65.2385 16.3104Z" fill="#3F3F3F"/>
<path d="M72.0248 8.96735V18.8248H68.6229V8.96735H72.0248ZM70.3369 5C70.8241 5 71.2475 5.1015 71.6072 5.30451C71.9726 5.50752 72.1553 5.91063 72.1553 6.51386C72.1553 7.09968 71.9726 7.497 71.6072 7.7058C71.2475 7.90881 70.8241 8.01032 70.3369 8.01032C69.8381 8.01032 69.4118 7.90881 69.058 7.7058C68.7099 7.497 68.5359 7.09968 68.5359 6.51386C68.5359 5.91063 68.7099 5.50752 69.058 5.30451C69.4118 5.1015 69.8381 5 70.3369 5Z" fill="#3F3F3F"/>
<path d="M83.8137 13.8743C83.8137 14.698 83.7006 15.4288 83.4744 16.0668C83.2482 16.7049 82.9205 17.2414 82.4913 17.6764C82.0621 18.1114 81.5429 18.442 80.9339 18.6682C80.3249 18.8886 79.6376 18.9988 78.8719 18.9988C78.1585 18.9988 77.5031 18.8886 76.9057 18.6682C76.314 18.442 75.7978 18.1114 75.357 17.6764C74.9162 17.2414 74.574 16.7049 74.3304 16.0668C74.0925 15.4288 73.9736 14.698 73.9736 13.8743C73.9736 12.7839 74.1709 11.8617 74.5653 11.1076C74.9655 10.3536 75.5339 9.77938 76.2705 9.38497C77.013 8.99055 77.8975 8.79335 78.9241 8.79335C79.8696 8.79335 80.7106 8.99055 81.4472 9.38497C82.1839 9.77938 82.761 10.3536 83.1786 11.1076C83.602 11.8617 83.8137 12.7839 83.8137 13.8743ZM77.4277 13.8743C77.4277 14.437 77.477 14.9126 77.5756 15.3012C77.6742 15.684 77.8308 15.9769 78.0454 16.1799C78.2658 16.3771 78.5529 16.4757 78.9067 16.4757C79.2605 16.4757 79.5419 16.3771 79.7507 16.1799C79.9595 15.9769 80.1103 15.684 80.2031 15.3012C80.3017 14.9126 80.351 14.437 80.351 13.8743C80.351 13.3117 80.3017 12.8419 80.2031 12.4649C80.1103 12.0879 79.9566 11.8037 79.742 11.6123C79.5332 11.4208 79.2489 11.3251 78.8893 11.3251C78.3731 11.3251 77.999 11.5398 77.767 11.969C77.5408 12.3982 77.4277 13.0333 77.4277 13.8743Z" fill="#3F3F3F"/>
<path d="M91.9311 8.79335C92.9462 8.79335 93.7756 9.08046 94.4194 9.65468C95.0633 10.2289 95.3852 11.1482 95.3852 12.4127V18.8248H91.9833V13.448C91.9833 12.7926 91.8876 12.2996 91.6962 11.969C91.5106 11.6326 91.209 11.4643 90.7914 11.4643C90.1476 11.4643 89.7155 11.7283 89.495 12.2561C89.2746 12.7781 89.1644 13.5292 89.1644 14.5095V18.8248H85.7626V8.96735H88.3292L88.7903 10.2724H88.9208C89.1296 9.95919 89.379 9.69238 89.669 9.47197C89.9591 9.25156 90.2926 9.08336 90.6696 8.96735C91.0466 8.85135 91.4671 8.79335 91.9311 8.79335Z" fill="#3F3F3F"/>
<path d="M114.77 6.10494L111.637 18.8248H107.574L106.356 13.2827C106.333 13.1783 106.295 13.0014 106.243 12.752C106.197 12.5026 106.142 12.2184 106.078 11.8994C106.02 11.5804 105.965 11.2671 105.913 10.9597C105.866 10.6465 105.831 10.3826 105.808 10.168C105.785 10.3826 105.747 10.6465 105.695 10.9597C105.643 11.2671 105.585 11.5804 105.521 11.8994C105.463 12.2184 105.405 12.5026 105.347 12.752C105.295 13.0014 105.257 13.1783 105.234 13.2827L104.007 18.8248H99.9441L96.7946 6.10494H100.109L101.493 12.4823C101.528 12.6389 101.574 12.8622 101.632 13.1522C101.696 13.4364 101.76 13.7496 101.823 14.0918C101.893 14.4283 101.957 14.7531 102.015 15.0663C102.073 15.3795 102.113 15.6405 102.137 15.8493C102.183 15.4897 102.244 15.0808 102.319 14.6226C102.401 14.1644 102.488 13.7003 102.58 13.2305C102.679 12.7549 102.772 12.3141 102.859 11.9081C102.946 11.502 103.021 11.1714 103.085 10.9162L104.207 6.10494H107.392L108.479 10.9162C108.537 11.1656 108.61 11.4962 108.697 11.9081C108.789 12.3141 108.882 12.7549 108.975 13.2305C109.074 13.7061 109.164 14.176 109.245 14.64C109.326 15.0982 109.387 15.5013 109.428 15.8493C109.462 15.5593 109.52 15.1939 109.602 14.7531C109.683 14.3065 109.764 13.8743 109.845 13.4567C109.932 13.0333 109.999 12.7143 110.045 12.4997L111.455 6.10494H114.77Z" fill="#3F3F3F"/>
<path d="M125.628 13.8743C125.628 14.698 125.514 15.4288 125.288 16.0668C125.062 16.7049 124.734 17.2414 124.305 17.6764C123.876 18.1114 123.357 18.442 122.748 18.6682C122.139 18.8886 121.451 18.9988 120.686 18.9988C119.972 18.9988 119.317 18.8886 118.719 18.6682C118.128 18.442 117.612 18.1114 117.171 17.6764C116.73 17.2414 116.388 16.7049 116.144 16.0668C115.906 15.4288 115.787 14.698 115.787 13.8743C115.787 12.7839 115.985 11.8617 116.379 11.1076C116.779 10.3536 117.348 9.77938 118.084 9.38497C118.827 8.99055 119.711 8.79335 120.738 8.79335C121.683 8.79335 122.524 8.99055 123.261 9.38497C123.998 9.77938 124.575 10.3536 124.992 11.1076C125.416 11.8617 125.628 12.7839 125.628 13.8743ZM119.241 13.8743C119.241 14.437 119.291 14.9126 119.389 15.3012C119.488 15.684 119.645 15.9769 119.859 16.1799C120.08 16.3771 120.367 16.4757 120.721 16.4757C121.074 16.4757 121.356 16.3771 121.564 16.1799C121.773 15.9769 121.924 15.684 122.017 15.3012C122.115 14.9126 122.165 14.437 122.165 13.8743C122.165 13.3117 122.115 12.8419 122.017 12.4649C121.924 12.0879 121.77 11.8037 121.556 11.6123C121.347 11.4208 121.063 11.3251 120.703 11.3251C120.187 11.3251 119.813 11.5398 119.581 11.969C119.355 12.3982 119.241 13.0333 119.241 13.8743Z" fill="#3F3F3F"/>
<path d="M133.527 8.79335C133.713 8.79335 133.907 8.80785 134.11 8.83685C134.313 8.86005 134.464 8.88035 134.563 8.89775L134.258 12.1082C134.148 12.0792 134.006 12.056 133.832 12.0386C133.658 12.0154 133.414 12.0038 133.101 12.0038C132.887 12.0038 132.657 12.0241 132.414 12.0647C132.17 12.1053 131.938 12.1923 131.718 12.3257C131.503 12.4533 131.326 12.6505 131.187 12.9173C131.048 13.1783 130.978 13.5321 130.978 13.9787V18.8248H127.576V8.96735H130.108L130.639 10.5421H130.804C130.984 10.2173 131.213 9.92439 131.492 9.66338C131.776 9.39657 132.092 9.18486 132.44 9.02825C132.794 8.87165 133.156 8.79335 133.527 8.79335Z" fill="#3F3F3F"/>
<path d="M139.365 5.28711V10.6117C139.365 11.0119 139.348 11.4585 139.313 11.9516C139.284 12.4388 139.238 12.8825 139.174 13.2827H139.244C139.377 13.0797 139.545 12.8245 139.748 12.5171C139.951 12.2097 140.134 11.9545 140.296 11.7515L142.506 8.96735H146.3L142.88 13.1609L146.517 18.8248H142.628L140.47 15.2925L139.365 16.1364V18.8248H135.946V5.28711H139.365Z" fill="#3F3F3F"/>
<path d="M155.017 15.7971C155.017 16.4235 154.878 16.9775 154.6 17.4589C154.321 17.9403 153.875 18.3173 153.26 18.5899C152.651 18.8625 151.847 18.9988 150.85 18.9988C150.148 18.9988 149.519 18.9611 148.962 18.8857C148.411 18.8103 147.851 18.6653 147.283 18.4507V15.7275C147.903 16.0117 148.536 16.2176 149.179 16.3452C149.823 16.467 150.331 16.5279 150.702 16.5279C151.085 16.5279 151.363 16.4873 151.537 16.4061C151.717 16.3191 151.807 16.1915 151.807 16.0233C151.807 15.8783 151.746 15.7565 151.624 15.6579C151.508 15.5535 151.296 15.4346 150.989 15.3012C150.687 15.1678 150.261 14.988 149.71 14.7618C149.165 14.5356 148.71 14.2891 148.344 14.0222C147.984 13.7554 147.715 13.4364 147.535 13.0652C147.355 12.694 147.265 12.2387 147.265 11.6993C147.265 10.7364 147.636 10.0114 148.379 9.52417C149.121 9.03696 150.104 8.79335 151.328 8.79335C151.978 8.79335 152.59 8.86585 153.164 9.01085C153.738 9.15006 154.333 9.35597 154.948 9.62858L154.017 11.8211C153.53 11.6007 153.036 11.4237 152.538 11.2903C152.039 11.1569 151.642 11.0902 151.346 11.0902C151.079 11.0902 150.873 11.125 150.728 11.1946C150.583 11.2642 150.51 11.3657 150.51 11.4991C150.51 11.621 150.56 11.7283 150.658 11.8211C150.763 11.9139 150.957 12.0212 151.241 12.143C151.526 12.2648 151.94 12.4359 152.485 12.6563C153.06 12.8883 153.532 13.1377 153.904 13.4045C154.281 13.6655 154.559 13.9845 154.739 14.3616C154.924 14.7386 155.017 15.2171 155.017 15.7971Z" fill="#3F3F3F"/>
</svg>
